<?xml version="1.0" encoding="UTF-8" standalone="no"?>
<svg
   xmlns:dc="http://purl.org/dc/elements/1.1/"
   xmlns:cc="http://creativecommons.org/ns#"
   xmlns:rdf="http://www.w3.org/1999/02/22-rdf-syntax-ns#"
   xmlns:svg="http://www.w3.org/2000/svg"
   xmlns="http://www.w3.org/2000/svg"
   viewBox="0 0 1122.52 793.70135"
   height="793.70135"
   width="1122.52"
   xml:space="preserve"
   id="svg2"
   version="1.1"><metadata
     id="metadata8"><rdf:RDF><cc:Work
         rdf:about=""><dc:format>image/svg+xml</dc:format><dc:type
           rdf:resource="http://purl.org/dc/dcmitype/StillImage" /></cc:Work></rdf:RDF></metadata><defs
     id="defs6"><clipPath
       id="clipPath26"
       clipPathUnits="userSpaceOnUse"><path
         id="path24"
         d="M 0,595.276 H 841.89 V 0 H 0 Z" /></clipPath></defs><g
     transform="matrix(1.3333333,0,0,-1.3333333,0,793.70133)"
     id="g10"><g
       transform="translate(395.1812,295.2578)"
       id="g12"><path
         id="path14"
         style="fill:#fcb231;fill-opacity:1;fill-rule:nonzero;stroke:none"
         d="M 0,0 10.983,10.988 H -20.098 V 42.076 L -31.084,31.082 V 0 Z" /></g><g
       transform="translate(419.0903,381.3374)"
       id="g16"><path
         id="path18"
         style="fill:#fcb231;fill-opacity:1;fill-rule:nonzero;stroke:none"
         d="M 0,0 -10.983,-10.983 H 20.1 v -31.085 l 10.987,10.987 0,31.081 z" /></g><g
       id="g20"><g
         clip-path="url(#clipPath26)"
         id="g22"><g
           transform="translate(361.3823,365.0049)"
           id="g28"><path
             id="path30"
             style="fill:#29549d;fill-opacity:1;fill-rule:nonzero;stroke:none"
             d="m 0,0 h -17.108 v -0.641 c 0.004,-0.003 0.006,-0.003 0.01,-0.006 h -0.01 c 1.55,-1.989 2.487,-3.882 2.528,-7.156 v -43.081 c 0.022,-0.405 0.133,-0.66 0.49,-0.826 0.466,-0.22 0.825,-0.01 1.471,0.634 l 10.094,10.094 v 33.266 c 0.053,3.22 0.989,5.096 2.525,7.069 h -0.01 c 0.002,0.003 0.005,0.003 0.01,0.006 z" /></g><g
           transform="translate(498.3066,365.0049)"
           id="g32"><path
             id="path34"
             style="fill:#29549d;fill-opacity:1;fill-rule:nonzero;stroke:none"
             d="m 0,0 h -17.114 v -0.641 c 0.005,-0.003 0.009,-0.003 0.011,-0.006 1.498,-1.923 2.421,-3.749 2.521,-6.824 v -25.828 c 0,-5.183 -4.202,-9.39 -9.387,-9.39 -5.183,0 -9.386,4.207 -9.386,9.39 v 30.663 c 0,0.604 -0.024,1.221 -0.495,1.387 -0.485,0.18 -0.75,0.031 -1.386,-0.61 v 0.003 l -10.177,-10.177 v -20.42 c 0,-11.84 9.6,-21.439 21.444,-21.439 11.842,0 21.444,9.599 21.444,21.439 v 24.495 c 0.01,3.373 0.953,5.289 2.525,7.311 h -0.01 c 0.004,0.003 0.007,0.003 0.01,0.006 z" /></g><g
           transform="translate(431.293,365.0049)"
           id="g36"><path
             id="path38"
             style="fill:#29549d;fill-opacity:1;fill-rule:nonzero;stroke:none"
             d="m 0,0 h -17.115 v -0.641 c 0.005,-0.003 0.009,-0.003 0.01,-0.006 h -0.01 c 1.575,-2.022 2.519,-3.938 2.532,-7.311 v -22.26 L -31.51,-2.975 -45.412,-16.877 v -28.146 c 0,-3.417 -0.946,-5.343 -2.531,-7.381 v -0.641 h 17.11 v 0.641 c -0.002,0 -0.004,0 -0.009,0.003 -1.524,1.962 -2.452,3.825 -2.52,7.009 v 22.565 l 16.926,-27.24 13.899,13.902 v 28.339 c 0.037,3.29 0.974,5.183 2.529,7.179 H -0.01 c 0.002,0.003 0.005,0.003 0.01,0.006 z" /></g><g
           transform="translate(347.4487,271.957)"
           id="g40"><path
             id="path42"
             style="fill:#747472;fill-opacity:1;fill-rule:nonzero;stroke:none"
             d="M 0,0 C -0.398,0.368 -0.898,0.551 -1.481,0.551 H -6.403 V 0.169 c 0.441,-0.405 0.831,-0.937 0.831,-2.335 v -26.11 H 0.644 V -1.475 C 0.644,-0.884 0.426,-0.383 0,0" /></g><g
           transform="translate(324.417,234.6191)"
           id="g44"><path
             id="path46"
             style="fill:#747472;fill-opacity:1;fill-rule:nonzero;stroke:none"
             d="M 0,0 V 11.13 H -6.207 V -0.531 c 0,-1.713 1.379,-3.098 3.094,-3.098 H 23.676 V 0 Z" /></g><g
           transform="translate(324.3193,253.2432)"
           id="g48"><path
             id="path50"
             style="fill:#747472;fill-opacity:1;fill-rule:nonzero;stroke:none"
             d="m 0,0 c -3.184,0 -5.757,3.489 -5.757,7.803 0,4.303 2.573,7.8 5.757,7.8 3.183,0 5.761,-3.497 5.761,-7.8 C 5.761,3.489 3.183,0 0,0 m 0,19.234 c -6.618,0 -11.98,-5.116 -11.98,-11.431 0,-6.316 5.362,-11.439 11.98,-11.439 6.614,0 11.979,5.123 11.979,11.439 0,6.315 -5.365,11.431 -11.979,11.431" /></g><g
           transform="translate(367.9912,234.6191)"
           id="g52"><path
             id="path54"
             style="fill:#747472;fill-opacity:1;fill-rule:nonzero;stroke:none"
             d="M 0,0 V 11.13 H -6.206 V -0.531 c 0,-1.713 1.378,-3.098 3.095,-3.098 H 23.677 V 0 Z" /></g><g
           transform="translate(372.1353,261.0762)"
           id="g56"><path
             id="path58"
             style="fill:#747472;fill-opacity:1;fill-rule:nonzero;stroke:none"
             d="M 0,0 C -0.791,1.706 -1.106,3.549 -1.227,5.08 H 8.171 V 8.702 H -1.29 v 1.926 c 0,0.604 -0.218,1.102 -0.649,1.494 -0.399,0.358 -0.89,0.538 -1.483,0.538 H -8.17 v -0.382 c 0.442,-0.405 0.832,-0.936 0.832,-2.335 V 8.702 H -16.64 V 5.08 h 9.221 C -7.541,3.549 -7.85,1.706 -8.643,0 c -1.541,-3.297 -3.421,-6.293 -9.418,-9.782 l 2.047,-3.409 c 5.904,2.526 9.606,6.248 11.777,9.957 2.175,-3.709 5.875,-7.431 11.774,-9.957 l 2.05,3.409 C 3.592,-6.293 1.537,-3.297 0,0" /></g><g
           transform="translate(391.0259,271.957)"
           id="g60"><path
             id="path62"
             style="fill:#747472;fill-opacity:1;fill-rule:nonzero;stroke:none"
             d="M 0,0 C -0.398,0.368 -0.896,0.551 -1.482,0.551 H -6.401 V 0.169 c 0.441,-0.405 0.83,-0.937 0.83,-2.335 v -8.283 h -8.479 v -3.629 h 8.479 V -28.276 H 0.643 V -1.475 C 0.643,-0.884 0.425,-0.383 0,0" /></g><g
           transform="translate(438.0898,271.957)"
           id="g64"><path
             id="path66"
             style="fill:#747472;fill-opacity:1;fill-rule:nonzero;stroke:none"
             d="M 0,0 C -0.412,0.371 -0.903,0.551 -1.48,0.551 H -6.404 V 0.169 c 0.441,-0.405 0.83,-0.937 0.83,-2.335 v -9.967 h -3.398 v 10.658 c 0,0.601 -0.216,1.092 -0.64,1.475 -0.41,0.371 -0.904,0.551 -1.488,0.551 h -4.927 V 0.169 c 0.441,-0.405 0.83,-0.937 0.83,-2.335 v -22.438 c -2.094,-1.085 -5.469,-1.249 -7.096,-1.249 h -8.603 v 21.141 h 12.305 v 3.636 h -18.537 v -25.315 c 0,-1.707 1.384,-3.097 3.099,-3.097 h 11.736 c 1.627,0.007 5.002,0.159 7.096,1.265 v -12.744 h 6.225 v 25.201 h 3.398 V -40.967 H 0.641 V -1.475 C 0.641,-0.874 0.424,-0.383 0,0" /></g><g
           transform="translate(480.666,261.5078)"
           id="g68"><path
             id="path70"
             style="fill:#747472;fill-opacity:1;fill-rule:nonzero;stroke:none"
             d="m 0,0 v 8.975 c 0,0.6 -0.209,1.091 -0.631,1.474 C -1.039,10.82 -1.531,11 -2.118,11 h -4.925 v -0.382 c 0.442,-0.405 0.83,-0.936 0.83,-2.335 V -12.438 H 0 v 8.809 h 6.991 l 0,3.629 z" /></g><g
           transform="translate(456.9092,253.2793)"
           id="g72"><path
             id="path74"
             style="fill:#747472;fill-opacity:1;fill-rule:nonzero;stroke:none"
             d="m 0,0 c -3.365,0 -5.756,2.793 -5.756,6.246 0,3.456 2.391,6.256 5.756,6.256 3.366,0 5.753,-2.8 5.753,-6.256 C 5.753,2.793 3.366,0 0,0 M 12.408,16.499 H 2.937 v 1.926 c 0,0.604 -0.209,1.102 -0.643,1.494 -0.402,0.358 -0.888,0.538 -1.484,0.538 h -4.583 v -0.382 c 0.44,-0.405 0.83,-0.936 0.83,-2.335 v -1.241 h -9.47 v -3.622 h 3.541 c -1.931,-1.757 -3.115,-4.078 -3.115,-6.635 0,-5.458 5.37,-9.881 11.987,-9.881 6.616,0 11.981,4.423 11.981,9.881 0,2.557 -1.188,4.878 -3.113,6.635 h 3.54 z" /></g><g
           transform="translate(477.5762,245.4102)"
           id="g76"><path
             id="path78"
             style="fill:#747472;fill-opacity:1;fill-rule:nonzero;stroke:none"
             d="M 0,0 H -25.914 V -3.635 H -3.141 V -14.42 H 3.09 V -3.091 C 3.09,-1.381 1.702,0 0,0" /></g><g
           transform="translate(521.3633,270.6182)"
           id="g80"><path
             id="path82"
             style="fill:#747472;fill-opacity:1;fill-rule:nonzero;stroke:none"
             d="M 0,0 H -28.098 V -3.636 H -3.14 V -26.283 H 3.092 V -3.091 C 3.092,-1.381 1.703,0 0,0" /></g><g
           transform="translate(514.2246,240.1045)"
           id="g84"><path
             id="path86"
             style="fill:#747472;fill-opacity:1;fill-rule:nonzero;stroke:none"
             d="m 0,0 v 12.614 c 0,0.598 -0.206,1.089 -0.635,1.485 -0.399,0.365 -0.9,0.55 -1.49,0.55 h -4.924 v -0.378 c 0.442,-0.409 0.83,-0.94 0.83,-2.337 V 0 h -5.463 v 12.614 c 0,0.598 -0.212,1.089 -0.641,1.485 -0.399,0.365 -0.897,0.55 -1.486,0.55 h -4.937 v -0.378 c 0.441,-0.409 0.83,-0.94 0.83,-2.337 V 0 h -8.119 V -3.619 H 15.326 V 0 Z" /></g><g
           transform="translate(317.1343,214.1299)"
           id="g88"><path
             id="path90"
             style="fill:#747472;fill-opacity:1;fill-rule:nonzero;stroke:none"
             d="m 0,0 v 0.465 c 0.958,0.09 1.072,0.182 1.072,1.278 V 6.764 C 1.072,7.879 0.958,7.962 0,8.065 V 8.521 H 3.918 V 8.065 C 2.948,7.962 2.839,7.879 2.839,6.764 V 1.743 c 0,-1.096 0.109,-1.188 1.079,-1.278 V 0 Z" /></g><g
           transform="translate(331.0693,222.1953)"
           id="g92"><path
             id="path94"
             style="fill:#747472;fill-opacity:1;fill-rule:nonzero;stroke:none"
             d="M 0,0 C -0.707,-0.037 -0.983,-0.213 -1.051,-0.814 -1.089,-1.226 -1.166,-1.84 -1.166,-2.988 v -5.207 h -0.635 l -5.447,6.525 h -0.044 v -2.942 c 0,-1.156 0.072,-1.737 0.104,-2.132 0.064,-0.574 0.292,-0.82 1.266,-0.857 v -0.464 h -3.212 v 0.464 c 0.727,0.046 1.029,0.263 1.082,0.821 0.057,0.431 0.133,1.012 0.133,2.168 v 2.735 c 0,0.857 -0.02,1.1 -0.274,1.402 C -8.434,-0.16 -8.722,-0.054 -9.277,0 v 0.455 h 2.417 l 5.007,-5.752 h 0.052 v 2.309 c 0,1.148 -0.07,1.762 -0.101,2.144 -0.067,0.569 -0.343,0.79 -1.302,0.844 v 0.455 l 3.204,0 z" /></g><g
           transform="translate(339.79,216.3613)"
           id="g96"><path
             id="path98"
             style="fill:#747472;fill-opacity:1;fill-rule:nonzero;stroke:none"
             d="m 0,0 c -0.171,-0.628 -0.503,-1.621 -0.737,-2.086 -0.347,-0.079 -1.547,-0.338 -2.43,-0.338 -3.485,0 -4.943,2.275 -4.943,4.356 0,2.676 2.069,4.556 5.205,4.556 1.061,0 2.033,-0.279 2.382,-0.352 C -0.4,5.412 -0.324,4.814 -0.217,3.978 L -0.708,3.891 c -0.431,1.564 -1.435,2.025 -2.446,2.025 -1.904,0 -2.94,-1.806 -2.94,-3.731 0,-2.404 1.283,-3.995 3.068,-3.995 1.089,0 1.902,0.698 2.563,2.019 z" /></g><g
           transform="translate(349.7793,222.1953)"
           id="g100"><path
             id="path102"
             style="fill:#747472;fill-opacity:1;fill-rule:nonzero;stroke:none"
             d="m 0,0 c -1.033,-0.104 -1.107,-0.17 -1.107,-1.289 v -5.04 c 0,-1.093 0.109,-1.182 1.107,-1.272 v -0.464 h -4.007 v 0.464 c 1.057,0.09 1.148,0.183 1.148,1.279 v 2.443 h -3.579 v -2.443 c 0,-1.1 0.106,-1.189 1.076,-1.279 v -0.464 h -3.902 v 0.464 c 0.949,0.09 1.071,0.179 1.071,1.279 v 5.033 c 0,1.119 -0.122,1.185 -1.125,1.289 v 0.455 h 3.929 V 0 c -0.943,-0.104 -1.049,-0.17 -1.049,-1.289 v -1.929 h 3.579 v 1.929 c 0,1.119 -0.102,1.185 -1.076,1.289 v 0.455 l 3.935,0 z" /></g><g
           transform="translate(357.7417,216.3086)"
           id="g104"><path
             id="path106"
             style="fill:#747472;fill-opacity:1;fill-rule:nonzero;stroke:none"
             d="m 0,0 c -0.073,-0.588 -0.351,-1.78 -0.455,-2.179 h -6.687 v 0.465 c 1.119,0.09 1.238,0.179 1.238,1.278 v 5.034 c 0,1.149 -0.119,1.209 -1.059,1.289 v 0.455 h 6.171 C -0.777,6.109 -0.709,5.189 -0.654,4.386 L -1.132,4.313 c -0.12,0.46 -0.299,0.886 -0.535,1.125 -0.214,0.236 -0.573,0.335 -1.307,0.335 h -0.622 c -0.491,0 -0.543,-0.026 -0.543,-0.468 V 2.533 h 0.878 c 1.093,0 1.272,0.06 1.454,0.983 H -1.34 V 0.869 h -0.467 c -0.182,0.937 -0.345,0.99 -1.454,0.99 h -0.878 v -2.268 c 0,-0.611 0.052,-0.937 0.314,-1.075 0.241,-0.097 0.677,-0.127 1.174,-0.127 0.675,0 1.143,0.093 1.462,0.419 0.252,0.296 0.48,0.71 0.734,1.274 z" /></g><g
           transform="translate(362.7783,222.2979)"
           id="g108"><path
             id="path110"
             style="fill:#747472;fill-opacity:1;fill-rule:nonzero;stroke:none"
             d="m 0,0 c -1.312,0 -2.346,-1.404 -2.346,-3.676 0,-2.231 0.988,-4.134 2.665,-4.134 1.252,0 2.254,1.223 2.254,3.626 C 2.573,-1.577 1.507,0 0.007,0 Z m 0.252,0.538 c 2.378,0 4.327,-1.754 4.327,-4.353 0,-2.823 -2.032,-4.545 -4.488,-4.545 -2.626,0 -4.447,1.928 -4.447,4.449 0,2.251 1.59,4.449 4.599,4.449 z" /></g><g
           transform="translate(377.2183,222.1953)"
           id="g112"><path
             id="path114"
             style="fill:#747472;fill-opacity:1;fill-rule:nonzero;stroke:none"
             d="m 0,0 c -0.694,-0.037 -0.981,-0.213 -1.042,-0.814 -0.035,-0.412 -0.11,-1.026 -0.11,-2.174 v -5.207 h -0.634 l -5.45,6.525 h -0.045 v -2.942 c 0,-1.156 0.061,-1.737 0.113,-2.132 0.06,-0.574 0.282,-0.82 1.255,-0.857 v -0.464 h -3.214 v 0.464 c 0.732,0.046 1.032,0.263 1.089,0.821 0.05,0.431 0.138,1.012 0.138,2.168 v 2.735 c 0,0.857 -0.034,1.1 -0.285,1.402 C -8.417,-0.16 -8.726,-0.054 -9.273,0 v 0.455 h 2.428 l 5.004,-5.752 h 0.055 v 2.309 c 0,1.148 -0.082,1.762 -0.11,2.144 -0.063,0.569 -0.338,0.79 -1.292,0.844 v 0.455 l 3.188,0 z" /></g><g
           transform="translate(389.7661,222.1953)"
           id="g116"><path
             id="path118"
             style="fill:#747472;fill-opacity:1;fill-rule:nonzero;stroke:none"
             d="m 0,0 c -0.714,-0.037 -0.985,-0.213 -1.051,-0.814 -0.04,-0.412 -0.125,-1.026 -0.125,-2.174 v -5.207 h -0.617 l -5.452,6.525 h -0.043 v -2.942 c 0,-1.156 0.063,-1.737 0.106,-2.132 0.065,-0.574 0.284,-0.82 1.253,-0.857 v -0.464 h -3.209 v 0.464 c 0.732,0.046 1.045,0.263 1.089,0.821 0.052,0.431 0.136,1.012 0.136,2.168 v 2.735 c 0,0.857 -0.023,1.1 -0.282,1.402 C -8.436,-0.16 -8.732,-0.054 -9.28,0 v 0.455 h 2.425 l 5.009,-5.752 h 0.053 v 2.309 c 0,1.148 -0.083,1.762 -0.111,2.144 -0.055,0.569 -0.337,0.79 -1.29,0.844 v 0.455 l 3.194,0 z" /></g><g
           transform="translate(393.5078,220.4482)"
           id="g120"><path
             id="path122"
             style="fill:#747472;fill-opacity:1;fill-rule:nonzero;stroke:none"
             d="m 0,0 h -0.04 c -0.365,-0.949 -0.69,-1.902 -1.029,-2.829 h 2.04 z m 1.119,-6.318 v 0.464 c 0.777,0.117 0.84,0.266 0.629,0.854 -0.133,0.392 -0.327,0.942 -0.529,1.483 h -2.515 c -0.143,-0.414 -0.308,-0.879 -0.47,-1.414 -0.18,-0.624 -0.163,-0.806 0.8,-0.923 v -0.464 h -2.935 l 0.011,0.464 c 0.872,0.103 1.031,0.243 1.46,1.345 l 2.682,6.74 0.674,0.17 C 1.755,0.097 2.57,-2.168 3.42,-4.426 3.863,-5.588 4.046,-5.751 4.861,-5.854 v -0.464 z" /></g><g
           transform="translate(405.2632,220.4053)"
           id="g124"><path
             id="path126"
             style="fill:#747472;fill-opacity:1;fill-rule:nonzero;stroke:none"
             d="m 0,0 c -0.156,0.688 -0.332,1.116 -0.573,1.354 -0.226,0.233 -0.559,0.323 -1.335,0.323 h -0.589 v -6.209 c 0,-1.1 0.118,-1.189 1.278,-1.279 V -6.275 H -5.49 v 0.464 c 1.104,0.09 1.237,0.179 1.237,1.279 v 6.209 h -0.45 c -1.072,0 -1.315,-0.15 -1.505,-0.362 -0.211,-0.222 -0.386,-0.668 -0.555,-1.322 h -0.464 c 0.049,0.953 0.127,1.912 0.155,2.584 h 0.309 c 0.211,-0.303 0.382,-0.332 0.745,-0.332 h 5.269 c 0.364,0 0.538,0.076 0.757,0.332 h 0.329 c 0,-0.552 0.07,-1.707 0.133,-2.544 z" /></g><g
           transform="translate(406.5664,214.1299)"
           id="g128"><path
             id="path130"
             style="fill:#747472;fill-opacity:1;fill-rule:nonzero;stroke:none"
             d="m 0,0 v 0.465 c 0.964,0.09 1.083,0.182 1.083,1.278 V 6.764 C 1.083,7.879 0.964,7.962 0,8.065 V 8.521 H 3.924 V 8.065 C 2.955,7.962 2.839,7.879 2.839,6.764 V 1.743 c 0,-1.096 0.116,-1.188 1.085,-1.278 V 0 Z" /></g><g
           transform="translate(415.7837,222.2979)"
           id="g132"><path
             id="path134"
             style="fill:#747472;fill-opacity:1;fill-rule:nonzero;stroke:none"
             d="m 0,0 c -1.31,0 -2.348,-1.404 -2.348,-3.676 0,-2.231 1.003,-4.134 2.68,-4.134 1.245,0 2.256,1.223 2.256,3.626 C 2.588,-1.577 1.519,0 0.01,0 Z m 0.262,0.538 c 2.379,0 4.337,-1.754 4.337,-4.353 0,-2.823 -2.042,-4.545 -4.508,-4.545 -2.612,0 -4.434,1.928 -4.434,4.449 0,2.251 1.589,4.449 4.598,4.449 z" /></g><g
           transform="translate(430.2402,222.1953)"
           id="g136"><path
             id="path138"
             style="fill:#747472;fill-opacity:1;fill-rule:nonzero;stroke:none"
             d="M 0,0 C -0.707,-0.037 -0.982,-0.213 -1.045,-0.814 -1.092,-1.226 -1.176,-1.84 -1.176,-2.988 V -8.195 H -1.799 L -7.25,-1.67 h -0.035 v -2.942 c 0,-1.156 0.054,-1.737 0.107,-2.132 0.057,-0.574 0.285,-0.82 1.252,-0.857 v -0.464 h -3.213 v 0.464 c 0.742,0.046 1.043,0.263 1.09,0.821 0.054,0.431 0.133,1.012 0.133,2.168 v 2.735 c 0,0.857 -0.025,1.1 -0.276,1.402 C -8.43,-0.16 -8.732,-0.054 -9.279,0 v 0.455 h 2.424 l 5.005,-5.752 h 0.051 v 2.309 c 0,1.148 -0.08,1.762 -0.103,2.144 -0.063,0.569 -0.336,0.79 -1.293,0.844 v 0.455 l 3.195,0 z" /></g><g
           transform="translate(433.9824,220.4482)"
           id="g140"><path
             id="path142"
             style="fill:#747472;fill-opacity:1;fill-rule:nonzero;stroke:none"
             d="M 0,0 H -0.041 C -0.404,-0.949 -0.738,-1.902 -1.076,-2.829 H 0.97 Z m 1.119,-6.318 v 0.464 C 1.883,-5.737 1.957,-5.588 1.746,-5 1.621,-4.608 1.418,-4.058 1.221,-3.517 h -2.522 c -0.138,-0.414 -0.299,-0.879 -0.461,-1.414 -0.19,-0.624 -0.16,-0.806 0.801,-0.923 v -0.464 h -2.943 l 0.014,0.464 c 0.869,0.103 1.03,0.243 1.452,1.345 l 2.694,6.74 0.664,0.17 C 1.764,0.097 2.572,-2.168 3.432,-4.426 3.871,-5.588 4.045,-5.751 4.864,-5.854 v -0.464 z" /></g><g
           transform="translate(446.2813,216.3545)"
           id="g144"><path
             id="path146"
             style="fill:#747472;fill-opacity:1;fill-rule:nonzero;stroke:none"
             d="m 0,0 c -0.109,-0.552 -0.387,-1.866 -0.492,-2.225 h -6.373 v 0.465 c 1.136,0.09 1.263,0.183 1.263,1.279 v 5.02 c 0,1.132 -0.127,1.198 -1.128,1.302 v 0.455 h 4.007 V 5.841 C -3.726,5.737 -3.846,5.671 -3.846,4.539 v -5.106 c 0,-0.619 0.051,-0.854 0.329,-0.97 0.223,-0.09 0.579,-0.12 0.988,-0.12 0.543,0 1.019,0.094 1.337,0.441 0.245,0.277 0.473,0.701 0.727,1.352 z" /></g><g
           transform="translate(458.6357,222.1953)"
           id="g148"><path
             id="path150"
             style="fill:#747472;fill-opacity:1;fill-rule:nonzero;stroke:none"
             d="M 0,0 C -0.714,-0.037 -1.036,-0.319 -1.105,-0.777 -1.175,-1.176 -1.22,-1.67 -1.22,-2.594 v -1.433 c 0,-1.392 -0.208,-2.491 -0.945,-3.275 -0.603,-0.624 -1.497,-0.956 -2.43,-0.956 -0.86,0 -1.687,0.18 -2.312,0.684 -0.746,0.574 -1.09,1.547 -1.09,3.078 v 3.074 c 0,1.235 -0.133,1.318 -1.094,1.422 v 0.455 h 3.94 V 0 C -6.109,-0.104 -6.239,-0.187 -6.239,-1.422 V -4.26 c 0,-1.969 0.711,-3.111 2.122,-3.111 1.562,0 2.241,1.185 2.241,3.373 v 1.404 c 0,0.924 -0.074,1.428 -0.135,1.817 -0.06,0.458 -0.373,0.723 -1.26,0.777 v 0.455 l 3.271,0 z" /></g><g
           transform="translate(468.1914,222.1953)"
           id="g152"><path
             id="path154"
             style="fill:#747472;fill-opacity:1;fill-rule:nonzero;stroke:none"
             d="M 0,0 C -0.697,-0.037 -0.973,-0.213 -1.043,-0.814 -1.082,-1.226 -1.165,-1.84 -1.165,-2.988 v -5.207 h -0.628 l -5.455,6.525 h -0.029 v -2.942 c 0,-1.156 0.066,-1.737 0.097,-2.132 0.069,-0.574 0.292,-0.82 1.264,-0.857 v -0.464 h -3.205 v 0.464 c 0.721,0.046 1.029,0.263 1.084,0.821 0.055,0.431 0.119,1.012 0.119,2.168 v 2.735 c 0,0.857 -0.018,1.1 -0.27,1.402 C -8.422,-0.16 -8.726,-0.054 -9.27,0 v 0.455 h 2.422 l 5.006,-5.752 h 0.049 v 2.309 c 0,1.148 -0.078,1.762 -0.109,2.144 -0.063,0.569 -0.34,0.79 -1.288,0.844 V 0.455 H 0 Z" /></g><g
           transform="translate(468.9023,214.1299)"
           id="g156"><path
             id="path158"
             style="fill:#747472;fill-opacity:1;fill-rule:nonzero;stroke:none"
             d="m 0,0 v 0.465 c 0.975,0.09 1.092,0.182 1.092,1.278 V 6.764 C 1.092,7.879 0.975,7.962 0,8.065 V 8.521 H 3.932 V 8.065 C 2.963,7.962 2.846,7.879 2.846,6.764 V 1.743 c 0,-1.096 0.117,-1.188 1.086,-1.278 L 3.932,0 Z" /></g><g
           transform="translate(482.5586,222.1748)"
           id="g160"><path
             id="path162"
             style="fill:#747472;fill-opacity:1;fill-rule:nonzero;stroke:none"
             d="m 0,0 c -0.844,-0.089 -1.089,-0.255 -1.607,-1.501 -0.445,-1.002 -1.63,-3.987 -2.653,-6.68 h -0.658 c -0.889,2.397 -2.113,5.548 -2.669,6.9 C -7.983,-0.255 -8.201,-0.083 -9.002,0 V 0.476 H -5.1 V 0 c -0.953,-0.14 -0.953,-0.282 -0.755,-0.843 0.376,-1.053 1.416,-3.713 1.884,-4.941 h 0.038 c 0.722,1.913 1.284,3.41 1.652,4.558 0.285,0.92 0.285,1.107 -0.783,1.226 v 0.476 l 3.064,0 z" /></g><g
           transform="translate(490.1621,216.3086)"
           id="g164"><path
             id="path166"
             style="fill:#747472;fill-opacity:1;fill-rule:nonzero;stroke:none"
             d="m 0,0 c -0.08,-0.588 -0.365,-1.78 -0.461,-2.179 h -6.685 v 0.465 c 1.111,0.09 1.241,0.179 1.241,1.278 v 5.034 c 0,1.149 -0.13,1.209 -1.061,1.289 v 0.455 h 6.173 C -0.78,6.109 -0.715,5.189 -0.659,4.386 L -1.131,4.313 c -0.135,0.46 -0.305,0.886 -0.541,1.125 -0.226,0.236 -0.576,0.335 -1.307,0.335 h -0.626 c -0.485,0 -0.543,-0.026 -0.543,-0.468 V 2.533 h 0.884 c 1.094,0 1.266,0.06 1.451,0.983 h 0.471 V 0.869 h -0.471 c -0.185,0.937 -0.341,0.99 -1.451,0.99 h -0.884 v -2.268 c 0,-0.611 0.058,-0.937 0.31,-1.075 0.242,-0.097 0.688,-0.127 1.182,-0.127 0.671,0 1.142,0.093 1.457,0.419 0.252,0.296 0.484,0.71 0.738,1.274 z" /></g><g
           transform="translate(493.9326,218.3164)"
           id="g168"><path
             id="path170"
             style="fill:#747472;fill-opacity:1;fill-rule:nonzero;stroke:none"
             d="M 0,0 C 0.544,0 0.989,0.094 1.276,0.35 1.728,0.721 1.903,1.242 1.903,1.913 1.903,3.297 1.097,3.818 0.37,3.818 0.038,3.818 -0.144,3.766 -0.228,3.676 -0.321,3.604 -0.337,3.474 -0.337,3.191 V 0 Z m 4.929,-4.303 c -0.083,0 -0.242,0.01 -0.395,0.01 -1.654,0.076 -2.166,0.448 -2.685,1.275 -0.346,0.541 -0.696,1.252 -1.084,1.922 -0.209,0.412 -0.445,0.559 -0.86,0.585 h -0.242 v -1.916 c 0,-1.072 0.123,-1.205 1.102,-1.295 v -0.465 h -3.953 v 0.465 c 0.982,0.09 1.129,0.223 1.129,1.295 v 5.034 c 0,1.045 -0.126,1.168 -1.077,1.272 v 0.455 h 3.68 C 1.685,4.334 2.353,4.214 2.88,3.842 3.403,3.5 3.769,2.906 3.769,2.089 3.769,0.937 3.015,0.322 2.13,-0.036 c 0.185,-0.392 0.683,-1.262 1.064,-1.862 0.473,-0.728 0.75,-1.147 1.014,-1.415 0.283,-0.306 0.49,-0.462 0.794,-0.565 z" /></g><g
           transform="translate(504.2637,220.5146)"
           id="g172"><path
             id="path174"
             style="fill:#747472;fill-opacity:1;fill-rule:nonzero;stroke:none"
             d="m 0,0 c -0.272,0.823 -0.754,1.796 -1.83,1.796 -0.734,0 -1.277,-0.551 -1.277,-1.291 0,-0.717 0.477,-1.149 1.632,-1.717 1.368,-0.681 2.317,-1.414 2.317,-2.706 0,-1.487 -1.274,-2.659 -3.186,-2.659 -0.465,0 -0.929,0.062 -1.313,0.18 -0.374,0.102 -0.622,0.209 -0.814,0.291 -0.115,0.332 -0.277,1.431 -0.371,2.228 l 0.454,0.14 c 0.267,-0.837 1.038,-2.305 2.3,-2.305 0.793,0 1.301,0.548 1.301,1.375 0,0.773 -0.574,1.259 -1.557,1.786 -1.348,0.684 -2.283,1.391 -2.283,2.647 0,1.441 1.145,2.57 3.014,2.57 0.826,0 1.57,-0.26 1.818,-0.353 C 0.254,1.494 0.346,0.92 0.451,0.106 Z" /></g><g
           transform="translate(505.874,214.1299)"
           id="g176"><path
             id="path178"
             style="fill:#747472;fill-opacity:1;fill-rule:nonzero;stroke:none"
             d="m 0,0 v 0.465 c 0.963,0.09 1.072,0.182 1.072,1.278 V 6.764 C 1.072,7.879 0.963,7.962 0,8.065 V 8.521 H 3.923 V 8.065 C 2.952,7.962 2.835,7.879 2.835,6.764 V 1.743 c 0,-1.096 0.117,-1.188 1.088,-1.278 V 0 Z" /></g><g
           transform="translate(517.9238,220.4053)"
           id="g180"><path
             id="path182"
             style="fill:#747472;fill-opacity:1;fill-rule:nonzero;stroke:none"
             d="M 0,0 C -0.16,0.688 -0.344,1.116 -0.582,1.354 -0.805,1.587 -1.146,1.677 -1.898,1.677 H -2.5 v -6.209 c 0,-1.1 0.125,-1.189 1.277,-1.279 v -0.464 h -4.264 v 0.464 c 1.087,0.09 1.227,0.179 1.227,1.279 V 1.677 H -4.709 C -5.781,1.677 -6.02,1.527 -6.213,1.315 -6.427,1.093 -6.6,0.647 -6.764,-0.007 h -0.471 c 0.053,0.953 0.128,1.912 0.157,2.584 h 0.314 C -6.551,2.274 -6.383,2.245 -6.02,2.245 h 5.266 c 0.358,0 0.545,0.076 0.764,0.332 H 0.332 C 0.338,2.025 0.401,0.87 0.468,0.033 Z" /></g><g
           transform="translate(527.4355,222.1953)"
           id="g184"><path
             id="path186"
             style="fill:#747472;fill-opacity:1;fill-rule:nonzero;stroke:none"
             d="m 0,0 c -0.838,-0.104 -1.113,-0.326 -1.573,-1.103 -0.482,-0.774 -0.83,-1.338 -1.464,-2.567 -0.187,-0.357 -0.24,-0.504 -0.24,-0.906 v -1.68 c 0,-1.166 0.105,-1.255 1.267,-1.357 v -0.452 h -4.256 v 0.452 c 1.114,0.089 1.223,0.191 1.223,1.357 v 1.465 c 0,0.314 -0.047,0.447 -0.158,0.707 -0.36,0.717 -0.852,1.59 -1.629,2.971 -0.49,0.86 -0.705,1.004 -1.438,1.113 v 0.455 h 3.76 V 0 c -0.863,-0.113 -0.857,-0.293 -0.618,-0.761 0.46,-0.909 0.98,-1.876 1.491,-2.845 0.377,0.744 1.049,1.979 1.365,2.772 0.215,0.531 0.2,0.704 -0.767,0.834 v 0.455 l 3.037,0 z" /></g></g></g></g></svg>